# xmcd
# 
# Track frame offsets:
#   150
#   8661
#   27548
#   63332
#   76980
#   98767
#   123144
#   140556
#   155627
# 
# Disc length: 2313 seconds
# 
# Revision: 1
# Processed by: cddbd v1.5.1PL0 Copyright (c) Steve Scherf et al.
# Submitted via: VOLTOCDX V1.0.24 
# 
DISCID=6b090709
DTITLE=My Artist - My Title
DYEAR=2005
DGENRE=Description of the extended genre
TTITLE0=Session_1_Track9
TTITLE1=Session_1_Track8
TTITLE2=Session_1_Track7
TTITLE3=
TTITLE4=
TTITLE5=
TTITLE6=
TTITLE7=
TTITLE8=
EXTD=Extended CD description
EXTT0=
EXTT1=
EXTT2=
EXTT3=
EXTT4=
EXTT5=
EXTT6=
EXTT7=
EXTT8=
PLAYORDER=
